
<svg version="1.0" xmlns="http://www.w3.org/2000/svg"
 width="24" height="24" >
<path d="M218 2653 c-2 -26 0 -87 4 -137 7 -71 15 -104 43 -162 19 -40 35 -75
35 -79 0 -10 -75 59 -108 100 -17 20 -35 9 -28 -19 4 -11 13 -57 22 -100 8
-44 24 -96 35 -117 25 -49 79 -129 87 -129 10 -1 75 -61 70 -65 -5 -5 -138 63
-160 82 -14 13 -17 12 -23 -8 -5 -14 -3 -26 6 -33 8 -6 28 -38 45 -71 49 -96
68 -125 82 -125 6 0 12 -6 12 -13 0 -7 17 -22 38 -34 20 -11 58 -32 84 -46 26
-15 62 -27 82 -27 47 0 46 -16 -1 -25 -21 -3 -48 -13 -61 -21 -12 -8 -27 -12
-32 -9 -6 3 -10 -5 -10 -18 0 -21 6 -26 37 -32 21 -4 49 -13 63 -20 59 -30
193 -41 255 -20 18 6 17 4 -3 -14 -13 -11 -21 -25 -18 -30 3 -5 -1 -12 -10
-15 -8 -3 -12 -10 -9 -16 9 -15 92 -12 125 5 17 9 30 12 30 9 0 -4 10 1 21 12
22 19 22 19 14 -6 -14 -44 -13 -130 1 -130 7 0 16 5 19 10 3 6 15 10 26 10 10
0 19 4 19 9 0 5 9 12 19 16 49 15 186 183 167 203 -3 2 2 18 10 34 9 17 13 32
10 35 -10 10 -25 -8 -31 -37 -8 -37 -73 -137 -111 -171 -43 -39 -102 -70 -110
-58 -3 6 -3 30 0 53 5 32 18 55 56 95 46 49 62 81 42 81 -5 0 -21 -18 -38 -40
-16 -22 -47 -49 -69 -61 -22 -11 -51 -27 -65 -35 -24 -13 -100 -20 -100 -9 0
10 51 54 101 86 27 17 49 35 49 40 0 5 6 9 14 9 17 0 30 16 18 23 -4 3 -34
-12 -66 -33 -74 -49 -138 -64 -230 -56 -77 7 -187 37 -187 51 0 16 84 36 196
46 60 6 115 15 122 21 7 5 19 8 28 5 8 -4 17 -2 20 3 11 18 -16 20 -82 5 -120
-28 -290 16 -383 98 -30 27 -110 122 -110 131 0 4 -10 20 -22 36 -24 33 -18
52 9 28 17 -14 49 -30 65 -32 3 -1 10 -4 14 -8 4 -5 15 -8 25 -8 9 0 19 -6 21
-12 3 -7 11 -13 19 -13 22 -1 91 -15 129 -26 19 -6 44 -12 55 -14 11 -2 20 -4
20 -6 0 -1 11 -3 25 -5 14 -2 50 -7 80 -11 74 -11 124 -10 130 2 3 6 -21 11
-60 13 -36 1 -87 8 -115 16 -27 7 -84 21 -125 31 -123 29 -247 130 -296 240
-27 63 -58 175 -49 183 3 3 25 -13 48 -36 24 -23 46 -42 50 -42 4 0 15 -8 25
-17 60 -58 94 -83 112 -83 11 0 20 -6 20 -12 0 -7 17 -20 38 -29 20 -8 55 -24
77 -34 51 -23 137 -55 148 -55 31 0 -80 62 -154 85 -12 4 -46 23 -75 41 -29
19 -57 34 -61 34 -4 0 -22 14 -40 30 -85 80 -141 212 -150 354 -7 101 1 106
41 27 14 -26 32 -53 40 -60 9 -8 16 -19 16 -25 0 -15 78 -88 127 -119 21 -13
44 -32 52 -41 7 -8 17 -13 22 -11 4 3 11 -1 16 -8 11 -20 87 -59 163 -86 36
-12 72 -27 82 -31 9 -5 65 -25 124 -45 124 -42 250 -101 258 -121 3 -8 11 -14
18 -14 25 -1 108 -104 108 -133 0 -9 6 -17 12 -19 23 -8 13 -116 -15 -179 -47
-103 -58 -227 -29 -301 7 -16 17 -28 23 -28 9 0 8 4 0 14 -9 10 -9 15 -1 18 8
2 8 11 1 29 -11 30 -8 137 6 194 5 22 24 69 41 105 21 46 32 88 37 140 10 114
30 174 73 219 35 37 42 40 90 39 106 0 152 -77 167 -277 4 -54 14 -92 36 -139
17 -36 33 -79 36 -96 8 -36 8 -164 1 -218 -6 -47 2 -49 22 -5 26 56 18 188
-16 277 -30 80 -39 190 -16 198 7 2 12 10 12 19 0 31 88 133 116 133 7 0 17 6
21 13 12 19 149 84 213 101 132 35 380 129 414 157 23 19 82 59 101 68 19 9
98 84 140 133 11 12 27 39 36 58 9 19 24 44 34 55 15 19 16 15 10 -65 -10
-135 -60 -261 -133 -336 -45 -47 -149 -105 -270 -154 -45 -18 -85 -37 -88 -42
-11 -18 6 -21 30 -4 14 9 32 16 39 16 17 0 109 35 150 57 15 8 34 12 41 10 10
-4 12 1 9 14 -4 14 0 19 15 19 11 0 44 20 73 45 29 25 56 45 60 45 3 0 24 16
45 36 70 64 73 62 49 -19 -39 -128 -48 -147 -103 -208 -62 -69 -142 -118 -225
-139 -133 -33 -221 -48 -295 -49 -21 -1 -31 -5 -27 -11 10 -16 121 -10 227 12
51 11 122 24 158 29 36 6 72 16 80 23 8 7 39 21 67 32 29 10 53 22 53 26 0 4
7 8 15 8 21 0 19 -8 -10 -46 -14 -18 -25 -36 -25 -40 0 -19 -104 -116 -162
-151 -86 -52 -251 -77 -338 -50 -47 14 -70 13 -70 -5 0 -6 7 -8 14 -5 8 3 29
-1 46 -10 18 -9 64 -17 108 -18 74 -3 191 -33 195 -50 4 -16 -129 -47 -213
-48 -94 -2 -127 9 -213 70 -27 19 -51 32 -54 30 -6 -7 36 -49 77 -77 42 -28
99 -82 100 -93 0 -5 -13 -6 -29 -4 -47 8 -101 28 -101 38 0 5 -8 9 -17 9 -10
0 -43 28 -75 61 -43 46 -56 56 -53 39 4 -22 18 -40 73 -96 12 -13 22 -31 23
-41 0 -10 3 -29 5 -43 9 -48 -2 -52 -54 -21 -63 39 -127 119 -153 193 -12 32
-26 61 -31 64 -18 11 -19 -4 -4 -34 8 -16 13 -32 10 -35 -6 -5 30 -73 52 -98
8 -8 14 -18 14 -21 0 -13 57 -66 89 -82 18 -10 30 -20 27 -23 -5 -5 57 -32 74
-33 8 0 4 103 -5 131 -8 24 -8 24 14 5 11 -11 21 -16 21 -12 0 3 12 0 28 -7
40 -21 109 -28 122 -12 8 9 6 14 -5 19 -9 3 -14 10 -10 16 3 5 -3 15 -15 22
-29 18 -25 29 7 17 53 -20 207 -10 248 17 11 7 37 16 58 19 40 8 50 15 39 30
-11 15 -73 44 -109 51 -40 8 -33 24 10 24 18 0 48 9 67 20 19 11 55 29 79 41
25 11 54 30 66 42 29 30 93 129 111 172 8 19 19 35 24 35 12 0 13 37 1 44 -4
3 -16 -3 -26 -14 -10 -11 -23 -20 -28 -20 -6 0 -35 -12 -64 -26 -30 -14 -57
-24 -59 -21 -3 2 12 17 33 33 88 66 143 155 163 264 7 36 17 69 21 75 5 5 9
22 9 38 0 22 -4 28 -16 23 -9 -3 -18 -6 -20 -6 -2 0 -4 -7 -4 -15 0 -8 -18
-26 -39 -39 -21 -14 -41 -31 -44 -38 -2 -7 -7 -10 -11 -7 -4 4 6 31 23 60 16
30 37 81 46 114 22 87 19 255 -5 255 -5 0 -23 -26 -41 -57 -41 -72 -143 -199
-172 -214 -12 -7 -40 -26 -62 -43 -22 -18 -61 -43 -87 -56 -27 -14 -48 -28
-48 -32 0 -4 -25 -12 -55 -19 -30 -7 -55 -16 -55 -20 0 -4 -24 -12 -52 -19
-29 -7 -68 -21 -86 -31 -18 -10 -42 -19 -52 -19 -38 0 -230 -79 -255 -106 -5
-5 -29 -22 -52 -37 -51 -32 -86 -77 -107 -137 -18 -53 -18 -53 -21 25 -3 63
-30 147 -58 180 -9 11 -23 29 -31 40 -11 15 -29 20 -84 23 -68 4 -70 4 -110
-33 -50 -45 -84 -128 -84 -203 0 -28 -4 -55 -9 -58 -5 -3 -9 2 -9 11 0 8 -11
37 -24 63 -48 96 -166 174 -371 248 -166 59 -193 70 -209 83 -8 7 -20 10 -25
7 -5 -4 -12 -2 -16 4 -3 5 -14 10 -23 10 -10 0 -41 16 -69 35 -29 19 -57 35
-62 35 -5 0 -11 4 -13 8 -1 5 -28 27 -58 49 -30 22 -63 49 -73 59 -31 34 -97
123 -97 132 0 13 -69 102 -79 102 -5 0 -11 -21 -13 -47z"/>
<path d="M2730 2538 c-11 -12 -20 -29 -19 -37 0 -11 4 -9 11 7 6 12 17 22 25
22 7 0 13 7 13 15 0 20 -6 19 -30 -7z"/>
<path d="M110 2466 c0 -16 29 -66 33 -59 7 11 -14 63 -25 63 -5 0 -8 -2 -8 -4z"/>
<path d="M151 2219 c0 -19 4 -43 8 -54 6 -14 8 -6 7 27 0 25 -4 50 -8 54 -5 4
-8 -8 -7 -27z"/>
<path d="M2940 2153 c0 -55 5 -54 14 5 4 26 2 42 -4 42 -5 0 -10 -21 -10 -47z"/>
<path d="M160 2117 c0 -8 -3 -22 -6 -31 -9 -22 9 -20 23 3 10 15 9 22 -2 31
-12 10 -15 9 -15 -3z"/>
<path d="M304 2118 c9 -5 21 -6 26 -3 6 3 10 -3 10 -14 0 -11 5 -23 12 -27 8
-5 9 0 5 17 -4 13 -7 27 -7 30 0 3 -14 6 -31 6 -23 0 -27 -3 -15 -9z"/>
<path d="M420 2070 c-14 -10 -21 -22 -17 -26 4 -4 17 2 29 14 28 28 20 36 -12
12z"/>
<path d="M2660 2048 c0 -18 27 -44 37 -34 4 4 -3 16 -15 29 -18 17 -22 18 -22
5z"/>
<path d="M1460 1855 c0 -13 20 -42 59 -84 40 -44 40 -44 50 -20 5 13 23 37 40
52 31 29 39 47 22 47 -5 0 -11 -3 -13 -7 -2 -5 -17 -20 -34 -36 l-31 -27 -46
41 c-26 22 -47 38 -47 34z"/>
<path d="M1529 1493 c0 -32 -1 -80 -1 -106 -1 -27 -6 -51 -12 -53 -6 -2 -80
-5 -165 -6 -116 -2 -155 -6 -159 -16 -6 -20 327 -15 335 5 5 11 9 11 25 -4 11
-10 32 -18 47 -19 238 -8 286 -7 286 6 0 10 -28 14 -120 17 -66 2 -138 5 -160
6 l-40 3 -3 100 c-2 106 -6 124 -22 124 -5 0 -10 -25 -11 -57z"/>
<path d="M1529 1200 c-1 -63 -3 -267 -5 -453 -2 -219 0 -337 7 -335 9 3 15
190 20 656 2 160 -1 226 -9 234 -9 9 -12 -15 -13 -102z"/>
<path d="M1315 1200 c-3 -5 2 -26 11 -45 9 -20 18 -44 18 -53 3 -29 29 -102
36 -102 4 0 12 -24 19 -52 12 -57 -1 -132 -36 -208 -8 -19 -30 -66 -48 -105
-34 -73 -79 -207 -89 -262 -8 -48 13 -52 49 -10 37 43 43 45 42 15 0 -49 7
-104 16 -115 5 -7 7 -13 3 -13 -3 0 4 -18 15 -40 26 -49 40 -48 45 5 3 29 1
36 -8 27 -21 -21 -26 -13 -33 43 -4 30 -11 58 -16 60 -13 9 2 74 32 133 32 62
35 74 16 66 -8 -3 -27 -32 -42 -64 -16 -33 -34 -60 -41 -60 -7 0 -20 -10 -28
-22 -19 -26 -35 -15 -18 12 7 11 12 26 12 34 0 8 16 52 36 98 104 241 117 275
127 334 7 37 -6 94 -32 144 -11 19 -22 50 -26 69 -4 19 -15 48 -25 65 -9 17
-15 37 -13 44 5 14 -13 16 -22 2z"/>
<path d="M1739 1191 c12 -8 11 -15 -7 -45 -12 -20 -26 -55 -33 -78 -6 -24 -18
-51 -27 -61 -17 -19 -18 -22 -28 -102 -7 -58 -2 -76 85 -300 62 -158 81 -214
81 -234 0 -21 -68 56 -94 107 -25 50 -46 73 -46 52 0 -5 4 -18 10 -28 35 -64
57 -157 39 -167 -5 -4 -9 -19 -9 -35 0 -43 -20 -82 -36 -69 -8 6 -14 6 -18 0
-4 -5 -2 -12 3 -15 5 -3 7 -15 4 -26 -4 -14 0 -20 11 -20 29 0 69 115 68 198
0 30 6 28 44 -15 45 -52 57 -38 40 47 -18 83 -46 167 -84 250 -43 93 -73 189
-74 237 0 27 10 65 31 108 17 37 31 74 31 82 0 8 9 34 20 59 22 47 20 64 -8
64 -14 0 -14 -2 -3 -9z"/>
<path d="M1430 440 c-6 -10 -9 -23 -8 -27 1 -4 -4 -38 -11 -74 -12 -62 -11
-70 8 -113 12 -25 24 -61 28 -78 3 -18 10 -37 15 -43 5 -5 18 -25 28 -42 26
-44 55 -43 77 2 9 19 20 35 25 35 4 0 8 11 8 24 0 14 5 28 10 31 6 3 15 26 21
51 6 24 16 44 21 44 6 0 8 10 5 23 -3 12 -9 54 -12 92 -7 67 -17 96 -31 82 -4
-3 -2 -43 4 -88 11 -85 -1 -152 -34 -190 -8 -8 -14 -25 -14 -37 0 -12 -4 -22
-9 -22 -5 0 -11 -10 -13 -23 -2 -12 -9 -22 -17 -22 -14 0 -20 9 -39 55 -5 14
-18 42 -27 64 -36 82 -38 117 -9 254 5 27 -11 29 -26 2z"/>
<path d="M1812 255 c-6 -14 -16 -25 -22 -25 -5 0 -10 -5 -10 -10 0 -18 38 8
45 31 10 30 0 33 -13 4z"/>
<path d="M1650 102 c0 -5 -9 -18 -21 -30 -11 -13 -19 -28 -17 -34 3 -7 13 2
23 20 11 18 23 32 27 32 4 0 8 5 8 10 0 6 -4 10 -10 10 -5 0 -10 -4 -10 -8z"/>

</svg>
